<?xml version="1.0" encoding="UTF-8" standalone="no"?>
<!-- Created with Inkscape (http://www.inkscape.org/) -->

<svg
   xmlns:dc="http://purl.org/dc/elements/1.1/"
   xmlns:cc="http://creativecommons.org/ns#"
   xmlns:rdf="http://www.w3.org/1999/02/22-rdf-syntax-ns#"
   xmlns:svg="http://www.w3.org/2000/svg"
   xmlns="http://www.w3.org/2000/svg"
   xmlns:sodipodi="http://sodipodi.sourceforge.net/DTD/sodipodi-0.dtd"
   xmlns:inkscape="http://www.inkscape.org/namespaces/inkscape"
   width="480"
   height="480"
   viewBox="0 0 127 127"
   version="1.1"
   id="svg14"
   sodipodi:docname="icon2.svg"
   inkscape:version="0.92.2 (5c3e80d, 2017-08-06)">
  <metadata
     id="metadata20">
    <rdf:RDF>
      <cc:Work
         rdf:about="">
        <dc:format>image/svg+xml</dc:format>
        <dc:type
           rdf:resource="http://purl.org/dc/dcmitype/StillImage" />
        <dc:title></dc:title>
      </cc:Work>
    </rdf:RDF>
  </metadata>
  <defs
     id="defs18" />
  <sodipodi:namedview
     pagecolor="#ffffff"
     bordercolor="#666666"
     borderopacity="1"
     objecttolerance="10"
     gridtolerance="10"
     guidetolerance="10"
     inkscape:pageopacity="0"
     inkscape:pageshadow="2"
     inkscape:window-width="2560"
     inkscape:window-height="1377"
     id="namedview16"
     showgrid="false"
     inkscape:pagecheckerboard="true"
     borderlayer="false"
     inkscape:zoom="2"
     inkscape:cx="258.32994"
     inkscape:cy="306.61522"
     inkscape:window-x="1912"
     inkscape:window-y="-8"
     inkscape:window-maximized="1"
     inkscape:current-layer="g12" />
  <g
     transform="translate(0,-170)"
     id="g12">
    <path
       style="fill:#f78b24;fill-opacity:1;stroke-width:1"
       d="m 64.000226,171.99988 a 62,62 0 0 0 -62.0003481,62.00035 62,62 0 0 0 62.0003481,61.99983 62,62 0 0 0 3.509864,-0.12454 55.999998,55.999998 0 0 1 -53.509911,-55.87566 55.999998,55.999998 0 0 1 55.999683,-55.99968 55.999998,55.999998 0 0 1 55.875658,52.48775 62,62 0 0 0 0.12454,-2.4877 62,62 0 0 0 -61.999834,-62.00035 z"
       id="circle4"
       inkscape:connector-curvature="0" />
    <g
       id="g849" />
    <path
       style="fill:#f78b24;fill-opacity:1;stroke:none;stroke-width:0.26458332"
       d="m 69.825194,191.13256 a 48.325955,48.325955 0 0 0 -48.325732,48.32573 48.325955,48.325955 0 0 0 48.325732,48.32625 48.325955,48.325955 0 0 0 48.326246,-48.32625 48.325955,48.325955 0 0 0 -48.326246,-48.32573 z m -18.159097,17.07493 27.238647,15.27813 27.239166,16.6672 -27.239166,15.27814 -27.238647,15.27865 v -31.25132 z"
       id="path837"
       inkscape:connector-curvature="0" />
  </g>
</svg>
